<?xml version="1.0" encoding="utf-8"?>
<!-- Generator: Adobe Illustrator 24.1.2, SVG Export Plug-In . SVG Version: 6.00 Build 0)  -->
<svg version="1.1" id="Слой_1" xmlns="http://www.w3.org/2000/svg" xmlns:xlink="http://www.w3.org/1999/xlink" x="0px" y="0px"
	 viewBox="0 0 1417.32 1417.32" style="enable-background:new 0 0 1417.32 1417.32;" xml:space="preserve">
<style type="text/css">
	.st0{fill:#FFFFFF;}
	.st1{fill:#114A70;}
	.st2{fill:url(#SVGID_1_);}
	.st3{fill:url(#SVGID_2_);}
</style>
<rect class="st0" width="1417.32" height="1417.32"/>
<g>
	<polygon class="st1" points="319.27,958.62 281.32,1044.2 245.74,958.62 207.18,958.62 272.48,1107.14 288.11,1107.14 
		358.25,958.62 	"/>
	<rect x="370.41" y="958.62" class="st1" width="37.12" height="147.26"/>
	<path class="st1" d="M534.1,969.46c-9.36-7.23-23.77-10.84-43.24-10.84H437.8v27.3c0,0,40.36,0.03,40.79,0.06h12.68
		c6.38,0,11.28,1.46,14.71,4.37c3.43,2.91,5.14,7.07,5.14,12.47c0,5.69-1.65,9.91-4.94,12.68c-3.29,2.77-8.33,4.16-15.12,4.16
		L437.8,1020v85.88H474v-57.58h13.99c20.09,0,35.13-3.79,45.15-11.37c10.01-7.58,15.01-19.02,15.01-34.32
		C548.14,987.74,543.46,976.69,534.1,969.46z"/>
	<path class="st1" d="M754.39,1093.56c-8.64,5.05-17.48,8.81-26.53,11.26s-18.55,3.68-28.49,3.68c-11.24,0-21.58-1.76-31.01-5.26
		c-9.43-3.51-17.67-8.67-24.73-15.47c-7.27-7.09-12.8-15.37-16.61-24.84c-3.8-9.47-5.71-19.65-5.71-30.53
		c0-22.87,7.46-41.31,22.37-55.31c14.91-14,34.6-21,59.08-21c8.78,0,17.33,0.98,25.66,2.95c8.33,1.97,16.57,4.98,24.73,9.05v34.52
		c-7.95-5.26-15.94-9.19-23.96-11.79c-8.02-2.6-16.04-3.89-24.06-3.89c-14.54,0-25.97,4.03-34.3,12.1
		c-8.33,8.07-12.49,19.19-12.49,33.37c0,13.75,3.97,24.74,11.93,32.95c7.95,8.21,18.65,12.31,32.08,12.31
		c8.64,0,17.31-1.56,26.02-4.68c8.71-3.12,17.38-7.74,26.02-13.84V1093.56z"/>
	<polygon class="st1" points="862.91,958.62 821.36,958.62 758.63,1105.88 796.99,1105.88 818.89,1051.99 841.21,995.99 
		861.37,1051.99 880.8,1105.88 918.95,1105.88 	"/>
	<path class="st1" d="M1033.34,1055.46c-2.13-4.77-4.61-8.72-7.46-11.84c-2.85-3.12-6.05-5.35-9.62-6.68
		c8.5-4,14.81-8.89,18.92-14.68c4.11-5.79,6.17-12.75,6.17-20.9c0-14.59-4.66-25.37-13.98-32.31c-9.33-6.95-23.76-10.42-43.29-10.42
		h-53.17v25.98l53.37,0.13c6.38,0,11.26,1.46,14.65,4.37c3.39,2.91,5.09,7.14,5.09,12.68c0,5.83-1.63,10.16-4.88,13
		c-3.26,2.84-8.21,4.26-14.86,4.26c0,0-48.5-0.17-53.37-0.18v87.01h36.1v-59.89c0.48,0,1.17-0.03,2.06-0.1
		c0.89-0.07,1.61-0.11,2.16-0.11c6.92,0,12.27,1.26,16.04,3.79c3.77,2.53,7.13,7.16,10.08,13.9l18.3,42.42h40.62L1033.34,1055.46z"
		/>
	<path class="st1" d="M871.04,1051.65h-28.05l-6.64,25.98l34.74,0.12C871.05,1069.05,871.04,1060.35,871.04,1051.65z"/>
	<path class="st1" d="M1203.05,999.41c-4.73-9.86-11.69-18.33-20.88-25.42c-7.13-5.47-14.95-9.4-23.45-11.79
		c-8.5-2.39-20.46-3.58-35.89-3.58h-53.99v29.95l35.99-0.16h26.84c12.2,0,22.16,4.07,29.87,12.21c7.71,8.14,11.57,18.67,11.57,31.58
		c0,12.91-3.86,23.46-11.57,31.63c-7.71,8.18-17.67,12.26-29.87,12.26h-26.84v-59.28h-35.99v89.07h53.99
		c14.67,0,25.74-0.86,33.22-2.58c7.47-1.72,14.29-4.58,20.46-8.58c10.9-7.16,19.23-16.09,24.99-26.79
		c5.76-10.7,8.64-22.61,8.64-35.74C1210.14,1020.2,1207.78,1009.27,1203.05,999.41z"/>
</g>
<linearGradient id="SVGID_1_" gradientUnits="userSpaceOnUse" x1="322.9037" y1="767.0095" x2="1095.8116" y2="357.4692">
	<stop  offset="0.1181" style="stop-color:#0B3763"/>
	<stop  offset="0.4992" style="stop-color:#6091BA"/>
</linearGradient>
<path class="st2" d="M933.78,770.32c-93.18-1.43-174-88.71-174-186.05c0-97.34,79.19-174.84,176.53-174.84
	c71.62,0,110,17.23,163.05,47.33c0-73.48,0.2-96.08,0.89-154.11c-11.03-6.33-74-34.3-163.93-34.3c-42.62,0-84,8.36-122.99,24.85
	c-37.63,15.91-71.4,38.68-100.39,67.67c-28.99,28.99-51.76,62.77-67.67,100.39c-2.42,5.73-4.65,11.52-6.73,17.36
	c-4.72,12.24-8.62,23.79-11.18,31.68c-34.57,106.5-53.61,178.07-53.61,178.07L408.15,303.42l-166.21,0.19L503.5,885.84h138.54
	c0,0,17.67-40.35,44.63-107.95c8.09,10.4,16.84,20.34,26.26,29.76c28.99,28.99,62.77,51.76,100.39,67.67
	c38.99,16.49,80.37,24.85,122.99,24.85c125.42,0,163.05-41.7,163.05-41.7s-0.62-120.77,0-139.05
	C1044.88,756.7,1004.95,771.41,933.78,770.32z"/>
<linearGradient id="SVGID_2_" gradientUnits="userSpaceOnUse" x1="685.0071" y1="743.3022" x2="1101.3524" y2="743.3022">
	<stop  offset="0" style="stop-color:#0B3763"/>
	<stop  offset="0.4992" style="stop-color:#6091BA"/>
</linearGradient>
<path class="st3" d="M932.07,763.75c-173.9-24.51-172.29-179.48-172.29-179.48s-58.06,156.8-74.77,197.78c0,0,0-1.33,26.93,25.6
	c28.99,28.99,62.77,51.76,100.39,67.67c38.99,16.49,80.37,27.01,122.99,27.01c125.42,0,166.03-36.47,166.03-36.47
	s-1.99-122.57-1-146.44C1044.01,748.1,1002.55,773.68,932.07,763.75z"/>
</svg>
